name Walk2.mot
datacolumns 19
datarows 30
range 2.10000000 2.12900000
endheader

                time	   L_ground_force_vx	   L_ground_force_vy	   L_ground_force_vz	   L_ground_force_px	   L_ground_force_py	   L_ground_force_pz	   R_ground_force_vx	   R_ground_force_vy	   R_ground_force_vz	   R_ground_force_px	   R_ground_force_py	   R_ground_force_pz	   L_ground_torque_x	   L_ground_torque_y	   L_ground_torque_z	   R_ground_torque_x	   R_ground_torque_y	   R_ground_torque_z	
          2.10000000	        -29.06505589	        537.67235840	         22.91442642	          0.48008657	          0.00000000	          0.21334465	          0.00000000	          0.00000000	          0.00000000	          0.00000000	          0.00000000	          0.00000000	          0.00000000	         -1.00393970	          0.00000000	          0.00000000	          0.00000000	          0.00000000	
          2.10100000	        -28.59459448	        536.50022599	         23.00618411	          0.48035174	          0.00000000	          0.21330642	          0.00000000	          0.00000000	          0.00000000	          0.00000000	          0.00000000	          0.00000000	          0.00000000	         -1.03029353	          0.00000000	          0.00000000	          0.00000000	          0.00000000	
          2.10200000	        -28.11273772	        535.41906290	         23.13172713	          0.48071144	          0.00000000	          0.21328109	          0.00000000	          0.00000000	          0.00000000	          0.00000000	          0.00000000	          0.00000000	          0.00000000	         -1.05377773	          0.00000000	          0.00000000	          0.00000000	          0.00000000	
          2.10300000	        -27.62127254	        534.39142880	         23.28214921	          0.48114343	          0.00000000	          0.21324712	          0.00000000	          0.00000000	          0.00000000	          0.00000000	          0.00000000	          0.00000000	          0.00000000	         -1.07832709	          0.00000000	          0.00000000	          0.00000000	          0.00000000	
          2.10400000	        -27.12756498	        533.36936998	         23.44184786	          0.48162854	          0.00000000	          0.21318871	          0.00000000	          0.00000000	          0.00000000	          0.00000000	          0.00000000	          0.00000000	          0.00000000	         -1.10287840	          0.00000000	          0.00000000	          0.00000000	          0.00000000	
          2.10500000	        -26.64466219	        532.33957981	         23.60176334	          0.48215259	          0.00000000	          0.21308875	          0.00000000	          0.00000000	          0.00000000	          0.00000000	          0.00000000	          0.00000000	          0.00000000	         -1.12037493	          0.00000000	          0.00000000	          0.00000000	          0.00000000	
          2.10600000	        -26.18854680	        531.33924775	         23.77177573	          0.48268252	          0.00000000	          0.21294119	          0.00000000	          0.00000000	          0.00000000	          0.00000000	          0.00000000	          0.00000000	          0.00000000	         -1.12566133	          0.00000000	          0.00000000	          0.00000000	          0.00000000	
          2.10700000	        -25.76957049	        530.40432753	         23.97585406	          0.48316911	          0.00000000	          0.21277580	          0.00000000	          0.00000000	          0.00000000	          0.00000000	          0.00000000	          0.00000000	          0.00000000	         -1.12461307	          0.00000000	          0.00000000	          0.00000000	          0.00000000	
          2.10800000	        -25.38331604	        529.54147529	         24.23686935	          0.48358158	          0.00000000	          0.21265560	          0.00000000	          0.00000000	          0.00000000	          0.00000000	          0.00000000	          0.00000000	          0.00000000	         -1.13071689	          0.00000000	          0.00000000	          0.00000000	          0.00000000	
          2.10900000	        -25.00763805	        528.76336983	         24.55869586	          0.48393473	          0.00000000	          0.21263339	          0.00000000	          0.00000000	          0.00000000	          0.00000000	          0.00000000	          0.00000000	          0.00000000	         -1.15146988	          0.00000000	          0.00000000	          0.00000000	          0.00000000	
          2.11000000	        -24.60875033	        528.09162291	         24.92325521	          0.48427823	          0.00000000	          0.21270448	          0.00000000	          0.00000000	          0.00000000	          0.00000000	          0.00000000	          0.00000000	          0.00000000	         -1.18165208	          0.00000000	          0.00000000	          0.00000000	          0.00000000	
          2.11100000	        -24.16018589	        527.50909683	         25.31213604	          0.48466099	          0.00000000	          0.21280427	          0.00000000	          0.00000000	          0.00000000	          0.00000000	          0.00000000	          0.00000000	          0.00000000	         -1.20939974	          0.00000000	          0.00000000	          0.00000000	          0.00000000	
          2.11200000	        -23.66611908	        526.95701136	         25.71933540	          0.48509511	          0.00000000	          0.21285491	          0.00000000	          0.00000000	          0.00000000	          0.00000000	          0.00000000	          0.00000000	          0.00000000	         -1.22631929	          0.00000000	          0.00000000	          0.00000000	          0.00000000	
          2.11300000	        -23.16149566	        526.38186048	         26.14170573	          0.48554285	          0.00000000	          0.21281481	          0.00000000	          0.00000000	          0.00000000	          0.00000000	          0.00000000	          0.00000000	          0.00000000	         -1.23397897	          0.00000000	          0.00000000	          0.00000000	          0.00000000	
          2.11400000	        -22.68593817	        525.76429543	         26.56866169	          0.48595119	          0.00000000	          0.21268815	          0.00000000	          0.00000000	          0.00000000	          0.00000000	          0.00000000	          0.00000000	          0.00000000	         -1.24194747	          0.00000000	          0.00000000	          0.00000000	          0.00000000	
          2.11500000	        -22.25955761	        525.12553514	         26.97900818	          0.48628532	          0.00000000	          0.21250825	          0.00000000	          0.00000000	          0.00000000	          0.00000000	          0.00000000	          0.00000000	          0.00000000	         -1.25993687	          0.00000000	          0.00000000	          0.00000000	          0.00000000	
          2.11600000	        -21.87592689	        524.51763511	         27.35389191	          0.48653431	          0.00000000	          0.21232357	          0.00000000	          0.00000000	          0.00000000	          0.00000000	          0.00000000	          0.00000000	          0.00000000	         -1.29076124	          0.00000000	          0.00000000	          0.00000000	          0.00000000	
          2.11700000	        -21.51294495	        523.98514257	         27.69796034	          0.48673987	          0.00000000	          0.21217181	          0.00000000	          0.00000000	          0.00000000	          0.00000000	          0.00000000	          0.00000000	          0.00000000	         -1.32784270	          0.00000000	          0.00000000	          0.00000000	          0.00000000	
          2.11800000	        -21.15308321	        523.52458565	         28.03453733	          0.48700225	          0.00000000	          0.21205223	          0.00000000	          0.00000000	          0.00000000	          0.00000000	          0.00000000	          0.00000000	          0.00000000	         -1.36098394	          0.00000000	          0.00000000	          0.00000000	          0.00000000	
          2.11900000	        -20.79136021	        523.09677489	         28.38219130	          0.48739466	          0.00000000	          0.21194334	          0.00000000	          0.00000000	          0.00000000	          0.00000000	          0.00000000	          0.00000000	          0.00000000	         -1.38544313	          0.00000000	          0.00000000	          0.00000000	          0.00000000	
          2.12000000	        -20.42794792	        522.68882842	         28.74538411	          0.48788072	          0.00000000	          0.21184123	          0.00000000	          0.00000000	          0.00000000	          0.00000000	          0.00000000	          0.00000000	          0.00000000	         -1.40345257	          0.00000000	          0.00000000	          0.00000000	          0.00000000	
          2.12100000	        -20.06613652	        522.34282716	         29.11629373	          0.48834036	          0.00000000	          0.21176298	          0.00000000	          0.00000000	          0.00000000	          0.00000000	          0.00000000	          0.00000000	          0.00000000	         -1.41927477	          0.00000000	          0.00000000	          0.00000000	          0.00000000	
          2.12200000	        -19.71443552	        522.11511596	         29.48137829	          0.48866806	          0.00000000	          0.21172114	          0.00000000	          0.00000000	          0.00000000	          0.00000000	          0.00000000	          0.00000000	          0.00000000	         -1.43614251	          0.00000000	          0.00000000	          0.00000000	          0.00000000	
          2.12300000	        -19.37604909	        522.02603709	         29.83531048	          0.48886033	          0.00000000	          0.21170412	          0.00000000	          0.00000000	          0.00000000	          0.00000000	          0.00000000	          0.00000000	          0.00000000	         -1.45518005	          0.00000000	          0.00000000	          0.00000000	          0.00000000	
          2.12400000	        -19.04023540	        522.05733725	         30.18653087	          0.48901725	          0.00000000	          0.21168887	          0.00000000	          0.00000000	          0.00000000	          0.00000000	          0.00000000	          0.00000000	          0.00000000	         -1.47323890	          0.00000000	          0.00000000	          0.00000000	          0.00000000	
          2.12500000	        -18.69082961	        522.18430201	         30.54755722	          0.48924527	          0.00000000	          0.21166604	          0.00000000	          0.00000000	          0.00000000	          0.00000000	          0.00000000	          0.00000000	          0.00000000	         -1.48416603	          0.00000000	          0.00000000	          0.00000000	          0.00000000	
          2.12600000	        -18.31433431	        522.38287193	         30.92312745	          0.48957574	          0.00000000	          0.21163704	          0.00000000	          0.00000000	          0.00000000	          0.00000000	          0.00000000	          0.00000000	          0.00000000	         -1.48497563	          0.00000000	          0.00000000	          0.00000000	          0.00000000	
          2.12700000	        -17.90240192	        522.61372972	         31.30598313	          0.48998123	          0.00000000	          0.21159830	          0.00000000	          0.00000000	          0.00000000	          0.00000000	          0.00000000	          0.00000000	          0.00000000	         -1.47925297	          0.00000000	          0.00000000	          0.00000000	          0.00000000	
          2.12800000	        -17.45955473	        522.83606350	         31.68348611	          0.49043248	          0.00000000	          0.21153743	          0.00000000	          0.00000000	          0.00000000	          0.00000000	          0.00000000	          0.00000000	          0.00000000	         -1.47412172	          0.00000000	          0.00000000	          0.00000000	          0.00000000	
          2.12900000	        -17.00596477	        523.02971081	         32.04525285	          0.49091725	          0.00000000	          0.21143517	          0.00000000	          0.00000000	          0.00000000	          0.00000000	          0.00000000	          0.00000000	          0.00000000	         -1.47464525	          0.00000000	          0.00000000	          0.00000000	          0.00000000	
